<svg id="Capa_1" data-name="Capa 1" xmlns="http://www.w3.org/2000/svg" viewBox="0 0 95 48"><defs><style>.cls-1{fill:#1d1d1b;}</style></defs><path class="cls-1" d="M36.16,9H22V46.79H16.05V9H1.87V3.07H36.16Z"/><path class="cls-1" d="M39.73,3.07h5.93V46.79H39.73Z"/><path class="cls-1" d="M84.89,9h-26V21.37h25.3v5.87H58.91V40.86H85.14v5.93H53V3.07H84.89Z"/><path class="cls-1" d="M87.81,4.37a3.25,3.25,0,0,1,1.24-1.2,3.46,3.46,0,0,1,1.71-.44,3.52,3.52,0,0,1,1.72.44,3.32,3.32,0,0,1,1.24,1.2A3.1,3.1,0,0,1,94.18,6a3.12,3.12,0,0,1-.46,1.68,3.32,3.32,0,0,1-1.24,1.2,3.52,3.52,0,0,1-1.72.44,3.46,3.46,0,0,1-1.71-.44,3.25,3.25,0,0,1-1.24-1.2,3.1,3.1,0,0,1-.46-1.66A3.12,3.12,0,0,1,87.81,4.37ZM93,4.75a2.44,2.44,0,0,0-.93-.93,2.62,2.62,0,0,0-2.58,0,2.58,2.58,0,0,0-1.25,2.24,2.49,2.49,0,0,0,.34,1.29,2.56,2.56,0,0,0,.91.91,2.62,2.62,0,0,0,2.58,0A2.42,2.42,0,0,0,93,7.34a2.49,2.49,0,0,0,.34-1.29A2.52,2.52,0,0,0,93,4.75Zm-2.1-.47a1.53,1.53,0,0,1,1,.32,1.14,1.14,0,0,1,.22,1.46,1.13,1.13,0,0,1-.49.42l.7,1.3h-1l-.6-1.1h-.42v1.1h-.87V4.28Zm-.54,1.66h.49a.57.57,0,0,0,.4-.13.47.47,0,0,0,.14-.35.45.45,0,0,0-.14-.35.58.58,0,0,0-.4-.12h-.49Z"/></svg>